# xmcd
#
# Track frame offsets: 
#        183
#        12693
#        26220
#        40448
#        54558
#        68813
#        82268
#        98188
#        111908
#        123648
#        135500
#        152008
#        168368
#        183795
#        195245
#        207778
#        223955
#
# Disc length: 3184 seconds
#
# Revision: 0
# Processed by: cddbd v1.5.2PL0 Copyright (c) Steve Scherf et al.
# Submitted via: ExactAudioCopy v0.99pb5
#
DISCID=f80c6e11
DTITLE=PETER CORNELIUS - PETER CORNELIUS Poptakes
DYEAR=1989
DGENRE=Pop
TTITLE0=FLECKERL TEPPICH
TTITLE1=FÜR JEDE JAHRESZEIT
TTITLE2=ES HAT SICH NICHTS VERÄNDERT
TTITLE3=DU BIST
TTITLE4=SCHAU MI NET SO AN
TTITLE5=DIE WOLK'N
TTITLE6=SONNENBLUMEN
TTITLE7=EINE ROSE AUS PAPIER
TTITLE8=INDIANER
TTITLE9=WIE SCHÖN DICH WIEDERZUSEHEN
TTITLE10=QUERULANT
TTITLE11=HAMPELMANN
TTITLE12=MÄDCHEN
TTITLE13=CORNELIUS BOOGIE
TTITLE14=LAD' DEINE FREUNDE EIN
TTITLE15=ES IST NICHT WICHTIG, DASS DIR SCHÖNHEIT IST GEGEBEN
TTITLE16=ROMANTIK
EXTD=
EXTT0=
EXTT1=
EXTT2=
EXTT3=
EXTT4=
EXTT5=
EXTT6=
EXTT7=
EXTT8=
EXTT9=
EXTT10=
EXTT11=
EXTT12=
EXTT13=
EXTT14=
EXTT15=
EXTT16=
PLAYORDER=
